<svg xmlns="http://www.w3.org/2000/svg" viewBox="0 0 293.91 59.29"><defs><style>.cls-1{fill:#fff;}.cls-2{fill:#ffd100;}.cls-3{fill:#ccc;}</style></defs><g id="Capa_2" data-name="Capa 2"><g id="Capa_1-2" data-name="Capa 1"><path class="cls-1" d="M115.92,35.5c-1.37-1.46-.55-4.38.15-7.67l2.38-11.19h9.78L130,8.31h-9.79L122,0h-9.22l-6,28.59c-.91,4.28-1.25,7.62.6,11.21,1.73,3.35,7.61,6.54,15.07,4.52L124,36.6C118.94,37.22,116.91,36.56,115.92,35.5Z"/><polygon class="cls-1" points="37.81 0 33.41 20.65 17.23 20.65 21.62 0 12.31 0 2.9 44.33 12.2 44.33 15.45 28.97 31.64 28.97 28.38 44.33 37.61 44.33 47.03 0 37.81 0"/><path class="cls-1" d="M91,11.44c-3.23,2.7-5.07,6.23-6.26,11.8L80.22,44.32h9.23l3.72-17.48c.88-4.09,1.55-6.65,3.09-8.22,2.12-2.16,5.18-2.28,8.86-2l1.77-8.33C100.4,6.66,94.74,8.28,91,11.44Z"/><polygon class="cls-1" points="163 8.31 134.19 8.31 132.42 16.64 149.14 16.64 128.23 36.32 126.53 44.33 155.34 44.33 157.12 36 140.31 36 161.32 16.23 163 8.31"/><path class="cls-1" d="M65.76,7.65A18.85,18.85,0,0,0,54.19,11.9C44.75,19.31,40.06,45,60.34,45a26.21,26.21,0,0,0,15.17-4.73l-3.67-6.2c-3.07,2.36-18.53,7.5-16.9-5H79.11s3.08-10-1.35-16.11C74,7.74,67,7.65,65.76,7.65Zm6,13.74H57c.52-2,3.66-6.89,9.5-6.36A5.4,5.4,0,0,1,71.77,21.39Z"/><g id="Registered_Trademark" data-name="Registered Trademark"><path class="cls-1" d="M161.58,39.7h0a3.35,3.35,0,0,0-3.11,2.58,2.42,2.42,0,0,0-.06.54h0a2,2,0,0,0,2.07,2h0a3.36,3.36,0,0,0,3.11-2.57,2.46,2.46,0,0,0,.06-.53A2,2,0,0,0,161.58,39.7Zm1.65,2.48a3,3,0,0,1-2.76,2.29h0a1.6,1.6,0,0,1-1.72-1.65,1.89,1.89,0,0,1,.06-.47,3,3,0,0,1,2.74-2.3,1.61,1.61,0,0,1,1.74,1.67A2.68,2.68,0,0,1,163.23,42.18Z"/><path class="cls-1" d="M161.37,41h-1.09l-.52,2.45h.54l.17-.79h.43l.35.79h.64l-.42-.88a1,1,0,0,0,.7-.76C162.27,41.33,162,41,161.37,41Zm.24.84a.47.47,0,0,1-.5.35h-.54l.15-.72h.53C161.52,41.51,161.66,41.64,161.61,41.88Z"/></g><polygon class="cls-2" points="152.47 57.93 0 57.93 1.75 49.68 154.23 49.68 152.47 57.93"/><path class="cls-3" d="M185.77,25.43a11.54,11.54,0,0,1-3.66-1.83l1.44-2.7a12,12,0,0,0,3.22,1.68,11.62,11.62,0,0,0,3.57.53,6,6,0,0,0,3.25-.72,2.3,2.3,0,0,0,1.12-2,1.89,1.89,0,0,0-.59-1.42,4.44,4.44,0,0,0-1.5-.92,23.19,23.19,0,0,0-2.45-.79A30.06,30.06,0,0,1,186.7,16a6.12,6.12,0,0,1-2.3-1.75,4.62,4.62,0,0,1-1-3,5.39,5.39,0,0,1,1-3.24,6.45,6.45,0,0,1,2.85-2.16,11.36,11.36,0,0,1,4.31-.76,13.1,13.1,0,0,1,4.14.65,8.53,8.53,0,0,1,3.2,1.8l-1.44,2.7a10.25,10.25,0,0,0-2.86-1.64A9,9,0,0,0,191.52,8a5.74,5.74,0,0,0-3.25.77,2.46,2.46,0,0,0-1.15,2.16,2,2,0,0,0,.62,1.52,4.57,4.57,0,0,0,1.55,1,25.42,25.42,0,0,0,2.54.83,29.63,29.63,0,0,1,3.41,1.18,6.25,6.25,0,0,1,2.24,1.67,4.25,4.25,0,0,1,.94,2.88,5.25,5.25,0,0,1-2.17,4.45,9.91,9.91,0,0,1-6,1.61A15.54,15.54,0,0,1,185.77,25.43Z"/><path class="cls-3" d="M215.82,11.26l-8.06,15.5a10,10,0,0,1-3.23,3.94,10.94,10.94,0,0,1-4.47,1.64l-.61-2.79a9.41,9.41,0,0,0,3.12-1.13,5.64,5.64,0,0,0,1.83-2.09l.57-1.06-4.94-14h3.65l3.45,10.36,5.06-10.36Z"/><path class="cls-3" d="M215.47,24.17l1.24-2.5a9,9,0,0,0,5.2,1.7c1.86,0,2.79-.54,2.79-1.61a1.23,1.23,0,0,0-.73-1.14,14.62,14.62,0,0,0-2.35-.87,21.43,21.43,0,0,1-2.53-.87,4.51,4.51,0,0,1-1.71-1.25,3.15,3.15,0,0,1-.7-2.14,4,4,0,0,1,1.67-3.33,7.07,7.07,0,0,1,4.42-1.27,9.83,9.83,0,0,1,3.11.49,7.2,7.2,0,0,1,2.5,1.35l-1.21,2.44a7.26,7.26,0,0,0-4.45-1.63,4,4,0,0,0-2.07.43,1.38,1.38,0,0,0-.72,1.26,1.25,1.25,0,0,0,.73,1.17,13.73,13.73,0,0,0,2.37.87,23,23,0,0,1,2.56.88,4.6,4.6,0,0,1,1.69,1.25,3.3,3.3,0,0,1,.7,2.16,3.8,3.8,0,0,1-1.67,3.28A7.67,7.67,0,0,1,221.83,26,11.36,11.36,0,0,1,215.47,24.17Z"/><path class="cls-3" d="M235.57,20.47c-.13,1.7.58,2.55,2.16,2.55a6.07,6.07,0,0,0,1.49-.2L239,25.64a7,7,0,0,1-2.36.35,4.7,4.7,0,0,1-3.47-1.2A4.63,4.63,0,0,1,232,21.33a5.39,5.39,0,0,1,0-.66l.51-6.7H229.7l.23-2.71h2.76L233,7.73l3.68-1.21-.37,4.74h3.88L239.94,14h-3.85Z"/><path class="cls-3" d="M244.72,18.71v.17a4.61,4.61,0,0,0,1,3.25,3.9,3.9,0,0,0,3,1.12,7.17,7.17,0,0,0,4.49-1.52l.8,2.44a6.37,6.37,0,0,1-2.41,1.36,10.07,10.07,0,0,1-3.08.49,8.26,8.26,0,0,1-3.88-.88,6.09,6.09,0,0,1-2.56-2.49,7.52,7.52,0,0,1-.89-3.74,9,9,0,0,1,.93-4.15,6.91,6.91,0,0,1,6.34-3.87,6.2,6.2,0,0,1,4.59,1.68,6.4,6.4,0,0,1,1.68,4.73,11.87,11.87,0,0,1-.09,1.41Zm.2-1.93h6.84a3.33,3.33,0,0,0-.8-2.45,3,3,0,0,0-2.28-.88Q245.61,13.45,244.92,16.78Z"/><path class="cls-3" d="M278.82,12.21A5.67,5.67,0,0,1,280,16.07c0,.38,0,.67,0,.86l-.69,8.86h-3.6l.69-8.75a5.39,5.39,0,0,0,0-.66,3,3,0,0,0-.57-2,2.25,2.25,0,0,0-1.76-.64,3,3,0,0,0-2.37,1,5.08,5.08,0,0,0-1,3l-.63,8.06h-3.6l.69-8.69a5.06,5.06,0,0,0,0-.63,3.15,3.15,0,0,0-.57-2.06,2.19,2.19,0,0,0-1.76-.67,3,3,0,0,0-2.38,1,5.08,5.08,0,0,0-1,3l-.63,8.06h-3.6l.84-10.41c.07-1.31.11-2.3.11-3,0-.51,0-.9,0-1.15h3.37l.06,2.07a5.15,5.15,0,0,1,4.63-2.44,5,5,0,0,1,2.68.66,3.59,3.59,0,0,1,1.54,1.93,5.48,5.48,0,0,1,2.09-1.91,5.83,5.83,0,0,1,2.83-.68A4.44,4.44,0,0,1,278.82,12.21Z"/><path class="cls-3" d="M181.16,38.58h3.74L183.49,56h9.57l-.23,3.05H179.58Z"/><path class="cls-3" d="M196.51,44.53h3.6L199,59.06h-3.6ZM200.8,38l-.26,3.54h-4L196.8,38Z"/><path class="cls-3" d="M206.06,58.41a6.21,6.21,0,0,1-2.53-2.47,7.59,7.59,0,0,1-.89-3.73,9,9,0,0,1,1-4.28,6.68,6.68,0,0,1,2.73-2.79,8.43,8.43,0,0,1,4.13-1A8.2,8.2,0,0,1,216,46l-1.24,2.53A6.82,6.82,0,0,0,210.6,47a3.82,3.82,0,0,0-3.13,1.36,5.88,5.88,0,0,0-1.12,3.84,4.6,4.6,0,0,0,1,3.17,3.65,3.65,0,0,0,2.82,1.12,5.8,5.8,0,0,0,2.1-.38,7.6,7.6,0,0,0,2-1.15l.8,2.5a6.76,6.76,0,0,1-2.31,1.36,8.52,8.52,0,0,1-2.84.49A8.1,8.1,0,0,1,206.06,58.41Z"/><path class="cls-3" d="M220.58,52v.17a4.61,4.61,0,0,0,1,3.25,3.89,3.89,0,0,0,3,1.13A7.15,7.15,0,0,0,229.12,55l.81,2.44a6.41,6.41,0,0,1-2.42,1.36,10,10,0,0,1-3.07.49,8.3,8.3,0,0,1-3.89-.88A6.15,6.15,0,0,1,218,55.92a7.63,7.63,0,0,1-.89-3.74A8.87,8.87,0,0,1,218,48a6.88,6.88,0,0,1,6.34-3.87A6.19,6.19,0,0,1,229,45.84a6.37,6.37,0,0,1,1.69,4.73,11.87,11.87,0,0,1-.09,1.41Zm.2-1.93h6.85a3.29,3.29,0,0,0-.81-2.45,3,3,0,0,0-2.27-.88Q221.48,46.72,220.78,50.05Z"/><path class="cls-3" d="M246.07,45.5a5.46,5.46,0,0,1,1.25,3.89c0,.37,0,.65,0,.84l-.72,8.83H243l.69-8.66a4.14,4.14,0,0,0,0-.57,3,3,0,0,0-.68-2.1,2.59,2.59,0,0,0-2-.72,3.39,3.39,0,0,0-2.62,1,4.48,4.48,0,0,0-1.09,2.8l-.66,8.23h-3.6l.83-10.41c.08-.79.12-1.7.12-2.74q0-.91,0-1.38h3.37l.05,2.16a5.15,5.15,0,0,1,2-1.87,6.28,6.28,0,0,1,2.92-.66A4.81,4.81,0,0,1,246.07,45.5Z"/><path class="cls-3" d="M249.6,57.44l1.23-2.5a9,9,0,0,0,5.21,1.7c1.86,0,2.79-.54,2.79-1.61a1.24,1.24,0,0,0-.74-1.14,14.8,14.8,0,0,0-2.34-.87,20.8,20.8,0,0,1-2.53-.87,4.51,4.51,0,0,1-1.71-1.25,3.16,3.16,0,0,1-.71-2.14,4,4,0,0,1,1.67-3.33,7.11,7.11,0,0,1,4.43-1.27,9.87,9.87,0,0,1,3.11.49,7.29,7.29,0,0,1,2.5,1.35l-1.21,2.44a7.29,7.29,0,0,0-4.46-1.63,4,4,0,0,0-2.07.43,1.38,1.38,0,0,0-.72,1.26,1.26,1.26,0,0,0,.74,1.17,13.41,13.41,0,0,0,2.37.87,23.77,23.77,0,0,1,2.56.88,4.57,4.57,0,0,1,1.68,1.25,3.24,3.24,0,0,1,.7,2.16,3.8,3.8,0,0,1-1.66,3.28A7.71,7.71,0,0,1,256,59.29,11.31,11.31,0,0,1,249.6,57.44Z"/><path class="cls-3" d="M268.09,52v.17a4.61,4.61,0,0,0,1,3.25,3.91,3.91,0,0,0,3,1.13A7.18,7.18,0,0,0,276.63,55l.8,2.44A6.37,6.37,0,0,1,275,58.8a10.07,10.07,0,0,1-3.08.49,8.26,8.26,0,0,1-3.88-.88,6,6,0,0,1-2.56-2.49,7.52,7.52,0,0,1-.89-3.74,9,9,0,0,1,.93-4.15,6.91,6.91,0,0,1,6.34-3.87,6.2,6.2,0,0,1,4.59,1.68,6.4,6.4,0,0,1,1.68,4.73,11.87,11.87,0,0,1-.09,1.41Zm.2-1.93h6.84a3.33,3.33,0,0,0-.8-2.45,3,3,0,0,0-2.28-.88Q269,46.72,268.29,50.05Z"/><path class="cls-3" d="M283.84,52v.17a4.61,4.61,0,0,0,1,3.25,3.89,3.89,0,0,0,3,1.13A7.13,7.13,0,0,0,292.38,55l.81,2.44a6.34,6.34,0,0,1-2.42,1.36,10,10,0,0,1-3.07.49,8.33,8.33,0,0,1-3.89-.88,6.06,6.06,0,0,1-2.55-2.49,7.53,7.53,0,0,1-.9-3.74A9,9,0,0,1,281.3,48a6.91,6.91,0,0,1,6.34-3.87,6.22,6.22,0,0,1,4.59,1.68,6.4,6.4,0,0,1,1.68,4.73,11.87,11.87,0,0,1-.09,1.41Zm.2-1.93h6.85a3.29,3.29,0,0,0-.81-2.45,3,3,0,0,0-2.27-.88Q284.74,46.72,284,50.05Z"/></g></g></svg>