<?xml version="1.0" encoding="utf-8"?>
<!-- Generator: Adobe Illustrator 26.0.1, SVG Export Plug-In . SVG Version: 6.00 Build 0)  -->
<svg version="1.1" id="Capa_1" xmlns="http://www.w3.org/2000/svg" xmlns:xlink="http://www.w3.org/1999/xlink" x="0px" y="0px"
	 viewBox="0 0 293.9 59.3" style="enable-background:new 0 0 293.9 59.3;" xml:space="preserve">
<style type="text/css">
	.st0{fill:#FFFFFF;}
</style>
<g id="Capa_2_00000029759901894006968280000012376731856531133065_">
	<g id="Capa_1-2">
		<path d="M115.9,35.5c-1.4-1.5-0.6-4.4,0.2-7.7l2.4-11.2h9.8l1.8-8.3h-9.8L122,0h-9.2l-6,28.6c-0.9,4.3-1.2,7.6,0.6,11.2
			c1.7,3.3,7.6,6.5,15.1,4.5l1.6-7.7C118.9,37.2,116.9,36.6,115.9,35.5z"/>
		<polygon points="37.8,0 33.4,20.6 17.2,20.6 21.6,0 12.3,0 2.9,44.3 12.2,44.3 15.4,29 31.6,29 28.4,44.3 37.6,44.3 47,0 		"/>
		<path d="M91,11.4c-3.2,2.7-5.1,6.2-6.3,11.8l-4.5,21.1h9.2l3.7-17.5c0.9-4.1,1.6-6.6,3.1-8.2c2.1-2.2,5.2-2.3,8.9-2l1.8-8.3
			C100.4,6.7,94.7,8.3,91,11.4z"/>
		<polygon points="163,8.3 134.2,8.3 132.4,16.6 149.1,16.6 128.2,36.3 126.5,44.3 155.3,44.3 157.1,36 140.3,36 161.3,16.2 		"/>
		<path d="M65.8,7.7c-4.2,0.1-8.3,1.6-11.6,4.2C44.8,19.3,40.1,45,60.3,45c5.4,0,10.7-1.6,15.2-4.7l-3.7-6.2
			c-3.1,2.4-18.5,7.5-16.9-5h24.2c0,0,3.1-10-1.3-16.1C74,7.7,67,7.7,65.8,7.7z M71.8,21.4H57c0.5-2,3.7-6.9,9.5-6.4
			c3,0,5.4,2.5,5.4,5.4C71.9,20.8,71.8,21.1,71.8,21.4L71.8,21.4z"/>
		<g id="Registered_Trademark">
			<path d="M161.6,39.7L161.6,39.7c-1.5,0.1-2.8,1.1-3.1,2.6c0,0.2-0.1,0.4-0.1,0.5l0,0c0,1.1,0.9,2,2,2c0,0,0,0,0.1,0l0,0
				c1.5-0.1,2.8-1.1,3.1-2.6c0-0.2,0.1-0.4,0.1-0.5C163.7,40.6,162.8,39.7,161.6,39.7C161.6,39.7,161.6,39.7,161.6,39.7z
				 M163.2,42.2c-0.3,1.3-1.4,2.2-2.8,2.3l0,0c-0.9,0.1-1.6-0.6-1.7-1.5c0-0.1,0-0.1,0-0.2c0-0.2,0-0.3,0.1-0.5
				c0.3-1.3,1.4-2.2,2.7-2.3c0.9-0.1,1.7,0.6,1.7,1.5c0,0.1,0,0.1,0,0.2C163.3,41.9,163.3,42,163.2,42.2z"/>
			<path d="M161.4,41h-1.1l-0.5,2.5h0.5l0.2-0.8h0.4l0.4,0.8h0.6l-0.4-0.9c0.4-0.1,0.6-0.4,0.7-0.8C162.3,41.3,162,41,161.4,41z
				 M161.6,41.8c-0.1,0.2-0.3,0.4-0.5,0.3h-0.5l0.1-0.7h0.5C161.5,41.5,161.7,41.6,161.6,41.8L161.6,41.8z"/>
		</g>
		<polygon class="st0" points="152.5,57.9 0,57.9 1.8,49.7 154.2,49.7 		"/>
		<path d="M185.8,25.4c-1.3-0.4-2.6-1-3.7-1.8l1.4-2.7c1,0.7,2.1,1.3,3.2,1.7c1.2,0.4,2.4,0.5,3.6,0.5c1.1,0.1,2.3-0.2,3.2-0.7
			c0.7-0.4,1.1-1.2,1.1-2c0-0.5-0.2-1.1-0.6-1.4c-0.4-0.4-0.9-0.7-1.5-0.9c-0.8-0.3-1.6-0.6-2.4-0.8c-1.2-0.3-2.3-0.8-3.5-1.3
			c-0.9-0.4-1.7-1-2.3-1.8c-0.7-0.9-1-1.9-1-3c0-1.2,0.3-2.3,1-3.2c0.7-1,1.7-1.7,2.9-2.2c1.4-0.5,2.8-0.8,4.3-0.8
			c1.4,0,2.8,0.2,4.1,0.7c1.2,0.4,2.3,1,3.2,1.8l-1.4,2.7c-0.9-0.7-1.8-1.3-2.9-1.6c-1-0.4-2-0.6-3.1-0.6c-1.1-0.1-2.3,0.2-3.2,0.8
			c-0.7,0.5-1.2,1.3-1.1,2.2c0,0.6,0.2,1.1,0.6,1.5c0.4,0.4,1,0.8,1.6,1c0.8,0.3,1.7,0.6,2.5,0.8c1.2,0.3,2.3,0.7,3.4,1.2
			c0.9,0.4,1.6,1,2.2,1.7c0.7,0.8,1,1.8,0.9,2.9c0.1,1.8-0.7,3.4-2.2,4.5c-1.8,1.2-3.9,1.7-6,1.6C188.7,26.1,187.2,25.9,185.8,25.4z
			"/>
		<path d="M215.8,11.3l-8.1,15.5c-0.7,1.6-1.8,2.9-3.2,3.9c-1.4,0.9-2.9,1.4-4.5,1.6l-0.6-2.8c1.1-0.2,2.2-0.6,3.1-1.1
			c0.8-0.5,1.4-1.3,1.8-2.1l0.6-1.1l-4.9-14h3.6l3.4,10.4l5.1-10.4L215.8,11.3z"/>
		<path d="M215.5,24.2l1.2-2.5c1.5,1.1,3.3,1.7,5.2,1.7c1.9,0,2.8-0.5,2.8-1.6c0-0.5-0.3-0.9-0.7-1.1c-0.8-0.4-1.5-0.6-2.4-0.9
			c-0.9-0.2-1.7-0.5-2.5-0.9c-0.7-0.3-1.2-0.7-1.7-1.2c-0.5-0.6-0.7-1.4-0.7-2.1c0-1.3,0.6-2.6,1.7-3.3c1.3-0.9,2.8-1.4,4.4-1.3
			c1.1,0,2.1,0.2,3.1,0.5c0.9,0.3,1.8,0.7,2.5,1.4l-1.2,2.4c-1.3-1-2.8-1.6-4.4-1.6c-0.7,0-1.4,0.1-2.1,0.4
			c-0.5,0.2-0.7,0.7-0.7,1.3c0,0.5,0.3,1,0.7,1.2c0.8,0.4,1.6,0.7,2.4,0.9c0.9,0.2,1.7,0.5,2.6,0.9c0.7,0.3,1.2,0.7,1.7,1.2
			c0.5,0.6,0.7,1.4,0.7,2.2c0,1.3-0.6,2.5-1.7,3.3c-1.3,0.8-2.9,1.2-4.5,1.2C219.6,26,217.4,25.4,215.5,24.2z"/>
		<path d="M235.6,20.5c-0.1,1.7,0.6,2.5,2.2,2.5c0.5,0,1-0.1,1.5-0.2l-0.2,2.8c-0.8,0.3-1.6,0.4-2.4,0.4c-1.3,0.1-2.5-0.3-3.5-1.2
			c-0.8-0.9-1.3-2.2-1.2-3.5c0-0.2,0-0.4,0-0.7l0.5-6.7h-2.8l0.2-2.7h2.8l0.3-3.5l3.7-1.2l-0.4,4.7h3.9l-0.2,2.7h-3.9L235.6,20.5z"
			/>
		<path d="M244.7,18.7v0.2c-0.1,1.2,0.3,2.3,1,3.2c0.8,0.8,1.9,1.2,3,1.1c1.6,0,3.2-0.5,4.5-1.5l0.8,2.4c-0.7,0.6-1.5,1.1-2.4,1.4
			c-1,0.3-2,0.5-3.1,0.5c-1.3,0-2.7-0.3-3.9-0.9c-1.1-0.6-2-1.4-2.6-2.5c-0.6-1.1-0.9-2.4-0.9-3.7c0-1.4,0.3-2.9,0.9-4.1
			c1.2-2.4,3.7-3.9,6.3-3.9c1.7-0.1,3.4,0.5,4.6,1.7c1.2,1.3,1.8,3,1.7,4.7c0,0.5,0,0.9-0.1,1.4L244.7,18.7z M244.9,16.8h6.8
			c0.1-0.9-0.2-1.8-0.8-2.4c-0.6-0.6-1.4-0.9-2.3-0.9C246.6,13.4,245.4,14.6,244.9,16.8z"/>
		<path d="M278.8,12.2c0.9,1.1,1.3,2.5,1.2,3.9c0,0.4,0,0.7,0,0.9l-0.7,8.9h-3.6l0.7-8.8c0-0.2,0-0.4,0-0.7c0.1-0.7-0.1-1.4-0.6-2
			c-0.5-0.5-1.1-0.7-1.8-0.6c-0.9,0-1.8,0.3-2.4,1c-0.6,0.9-1,1.9-1,3l-0.6,8.1h-3.6l0.7-8.7c0-0.2,0-0.4,0-0.6
			c0.1-0.7-0.1-1.5-0.6-2.1c-0.5-0.5-1.1-0.7-1.8-0.7c-0.9,0-1.8,0.3-2.4,1c-0.6,0.9-1,1.9-1,3l-0.6,8.1h-3.6l0.8-10.4
			c0.1-1.3,0.1-2.3,0.1-3c0-0.5,0-0.9,0-1.1h3.4l0.1,2.1c1-1.6,2.8-2.5,4.6-2.4c0.9,0,1.9,0.2,2.7,0.7c0.7,0.4,1.3,1.1,1.5,1.9
			c0.5-0.8,1.2-1.5,2.1-1.9c0.9-0.5,1.8-0.7,2.8-0.7C276.7,10.8,277.9,11.3,278.8,12.2z"/>
		<path d="M181.2,38.6h3.7L183.5,56h9.6l-0.2,3h-13.2L181.2,38.6z"/>
		<path d="M196.5,44.5h3.6L199,59.1h-3.6L196.5,44.5z M200.8,38l-0.3,3.5h-4l0.3-3.5H200.8z"/>
		<path d="M206.1,58.4c-1.1-0.6-1.9-1.4-2.5-2.5c-0.6-1.1-0.9-2.4-0.9-3.7c0-1.5,0.3-3,1-4.3c0.6-1.2,1.6-2.2,2.7-2.8
			c1.3-0.7,2.7-1,4.1-1c2-0.1,4,0.6,5.5,1.9l-1.2,2.5c-1.2-1-2.6-1.5-4.2-1.5c-1.2-0.1-2.4,0.4-3.1,1.4c-0.8,1.1-1.2,2.5-1.1,3.8
			c-0.1,1.1,0.3,2.3,1,3.2c0.7,0.8,1.8,1.2,2.8,1.1c0.7,0,1.4-0.1,2.1-0.4c0.7-0.3,1.4-0.7,2-1.2l0.8,2.5c-0.7,0.6-1.5,1.1-2.3,1.4
			c-0.9,0.3-1.9,0.5-2.8,0.5C208.6,59.3,207.3,59,206.1,58.4z"/>
		<path d="M220.6,52v0.2c-0.1,1.2,0.3,2.3,1,3.2c0.8,0.8,1.9,1.2,3,1.1c1.6,0,3.3-0.5,4.5-1.5l0.8,2.4c-0.7,0.6-1.5,1.1-2.4,1.4
			c-1,0.3-2,0.5-3.1,0.5c-1.3,0-2.7-0.3-3.9-0.9c-1.1-0.6-2-1.4-2.5-2.5c-0.6-1.2-0.9-2.4-0.9-3.7c0-1.4,0.3-2.9,0.9-4.2
			c1.2-2.4,3.7-3.9,6.3-3.9c1.7-0.1,3.4,0.5,4.7,1.7c1.2,1.3,1.8,3,1.7,4.7c0,0.5,0,0.9-0.1,1.4L220.6,52z M220.8,50.1h6.9
			c0.1-0.9-0.2-1.8-0.8-2.5c-0.6-0.6-1.4-0.9-2.3-0.9C222.5,46.7,221.2,47.8,220.8,50.1L220.8,50.1z"/>
		<path d="M246.1,45.5c0.9,1.1,1.4,2.5,1.2,3.9c0,0.4,0,0.7,0,0.8l-0.7,8.8H243l0.7-8.7c0-0.2,0-0.4,0-0.6c0-0.8-0.2-1.5-0.7-2.1
			c-0.5-0.5-1.3-0.8-2-0.7c-1-0.1-1.9,0.3-2.6,1c-0.7,0.8-1.1,1.8-1.1,2.8l-0.7,8.2H233l0.8-10.4c0.1-0.8,0.1-1.7,0.1-2.7
			c0-0.6,0-1.1,0-1.4h3.4l0.1,2.2c0.5-0.8,1.2-1.4,2-1.9c0.9-0.5,1.9-0.7,2.9-0.7C243.7,44,245.1,44.5,246.1,45.5z"/>
		<path d="M249.6,57.4l1.2-2.5c1.5,1.1,3.3,1.7,5.2,1.7c1.9,0,2.8-0.5,2.8-1.6c0-0.5-0.3-0.9-0.7-1.1c-0.8-0.4-1.5-0.6-2.3-0.9
			c-0.9-0.2-1.7-0.5-2.5-0.9c-0.7-0.3-1.2-0.7-1.7-1.2c-0.5-0.6-0.7-1.4-0.7-2.1c0-1.3,0.6-2.6,1.7-3.3c1.3-0.9,2.9-1.4,4.4-1.3
			c1.1,0,2.1,0.2,3.1,0.5c0.9,0.3,1.8,0.7,2.5,1.3l-1.2,2.4c-1.3-1-2.8-1.6-4.5-1.6c-0.7,0-1.4,0.1-2.1,0.4
			c-0.5,0.2-0.7,0.7-0.7,1.3c0,0.5,0.3,1,0.7,1.2c0.8,0.4,1.6,0.7,2.4,0.9c0.9,0.2,1.7,0.5,2.6,0.9c0.6,0.3,1.2,0.7,1.7,1.2
			c0.5,0.6,0.7,1.4,0.7,2.2c0,1.3-0.6,2.5-1.7,3.3c-1.3,0.8-2.9,1.2-4.4,1.2C253.7,59.3,251.5,58.7,249.6,57.4z"/>
		<path d="M268.1,52v0.2c-0.1,1.2,0.3,2.3,1,3.2c0.8,0.8,1.9,1.2,3,1.1c1.6,0,3.2-0.5,4.5-1.5l0.8,2.4c-0.7,0.6-1.5,1.1-2.4,1.4
			c-1,0.3-2,0.5-3.1,0.5c-1.3,0-2.7-0.3-3.9-0.9c-1.1-0.6-2-1.4-2.6-2.5c-0.6-1.1-0.9-2.4-0.9-3.7c0-1.4,0.3-2.9,0.9-4.2
			c1.2-2.4,3.7-3.9,6.3-3.9c1.7-0.1,3.4,0.5,4.6,1.7c1.2,1.3,1.8,3,1.7,4.7c0,0.5,0,0.9-0.1,1.4L268.1,52z M268.3,50.1h6.8
			c0.1-0.9-0.2-1.8-0.8-2.5c-0.6-0.6-1.4-0.9-2.3-0.9C270,46.7,268.8,47.8,268.3,50.1L268.3,50.1z"/>
		<path d="M283.8,52v0.2c-0.1,1.2,0.3,2.3,1,3.2c0.8,0.8,1.9,1.2,3,1.1c1.6,0,3.3-0.5,4.5-1.5l0.8,2.4c-0.7,0.6-1.5,1.1-2.4,1.4
			c-1,0.3-2,0.5-3.1,0.5c-1.3,0-2.7-0.3-3.9-0.9c-1.1-0.6-2-1.4-2.5-2.5c-0.6-1.1-0.9-2.4-0.9-3.7c0-1.4,0.3-2.9,0.9-4.2
			c1.2-2.4,3.7-3.9,6.3-3.9c1.7-0.1,3.4,0.5,4.6,1.7c1.2,1.3,1.8,3,1.7,4.7c0,0.5,0,0.9-0.1,1.4L283.8,52z M284,50.1h6.9
			c0.1-0.9-0.2-1.8-0.8-2.5c-0.6-0.6-1.4-0.9-2.3-0.9C285.8,46.7,284.5,47.8,284,50.1L284,50.1z"/>
	</g>
</g>
</svg>
